<?xml version="1.0" standalone="no"?>
<!DOCTYPE svg PUBLIC "-//W3C//DTD SVG 20010904//EN"
 "http://www.w3.org/TR/2001/REC-SVG-20010904/DTD/svg10.dtd">
<svg version="1.0" xmlns="http://www.w3.org/2000/svg"
 width="260.000000pt" height="260.000000pt" viewBox="0 0 260.000000 260.000000"
 preserveAspectRatio="xMidYMid meet">
<metadata>
Created by potrace 1.14, written by Peter Selinger 2001-2017
</metadata>
<g transform="translate(0.000000,260.000000) scale(0.100000,-0.100000)"
fill="#000000" stroke="none">
<path d="M677 2132 l-67 -68 0 -387 0 -387 95 0 95 0 0 135 0 135 160 0 160 0
0 -135 0 -135 90 0 90 0 0 388 0 388 -68 67 -68 67 -210 0 -210 0 -67 -68z
m505 -49 l48 -47 0 -333 c0 -326 0 -333 -20 -333 -19 0 -20 7 -20 130 l0 130
-230 0 -230 0 0 -130 c0 -123 -1 -130 -20 -130 -20 0 -20 7 -20 332 l0 332 47
48 47 48 175 0 175 0 48 -47z"/>
<path d="M767 2052 l-37 -38 0 -172 0 -172 230 0 230 0 0 173 0 173 -38 37
-38 37 -155 0 -155 0 -37 -38z m330 -54 c22 -20 23 -29 23 -140 l0 -118 -160
0 -160 0 0 124 c0 159 -3 156 159 156 104 0 117 -2 138 -22z"/>
<path d="M1450 2110 l0 -89 88 -3 87 -3 3 -272 2 -273 -90 0 -90 0 0 -90 0
-90 270 0 270 0 0 90 0 90 -90 0 -90 0 0 275 0 275 90 0 90 0 0 90 0 90 -270
0 -270 0 0 -90z m470 0 c0 -19 -7 -20 -95 -20 l-95 0 0 -345 0 -345 95 0 c88
0 95 -1 95 -20 0 -19 -7 -20 -200 -20 -193 0 -200 1 -200 20 0 18 7 20 85 20
l85 0 0 345 0 345 -85 0 c-78 0 -85 2 -85 20 0 19 7 20 200 20 193 0 200 -1
200 -20z"/>
<path d="M979 923 c-28 -45 -98 -123 -110 -123 -5 0 -9 11 -9 25 l0 25 -125 0
-125 0 0 -30 0 -30 120 0 c102 0 119 -2 114 -15 -5 -12 -26 -15 -100 -15 l-94
0 0 -30 0 -30 95 0 95 0 0 28 0 27 18 -23 18 -24 57 52 c31 28 66 66 77 85
l21 34 77 -79 c42 -44 82 -80 87 -80 6 0 18 15 28 32 18 31 18 33 1 43 -33 19
-101 85 -129 125 -23 33 -34 40 -61 40 -27 0 -36 -6 -55 -37z"/>
<path d="M1550 860 l0 -90 -40 0 c-39 0 -40 -1 -40 -35 0 -33 2 -35 35 -35
l36 0 -17 -32 c-9 -18 -26 -44 -38 -56 l-21 -24 -5 174 -5 173 -32 3 -33 3 0
-290 0 -291 35 0 c31 0 35 3 35 25 0 25 1 25 85 25 83 0 86 -1 115 -32 l30
-33 25 30 c32 38 63 137 71 226 l7 69 33 0 34 0 0 -165 0 -165 35 0 35 0 0
165 0 165 30 0 c28 0 30 3 30 35 l0 35 -100 0 -100 0 0 50 c0 37 4 50 14 50 8
0 52 12 97 26 l82 26 -29 29 -29 28 -68 -24 c-37 -14 -83 -25 -101 -25 l-33 0
-6 -172 c-3 -104 -11 -189 -19 -213 l-13 -40 -113 -3 -112 -3 1 48 c0 42 2 45
11 26 15 -30 19 -29 48 14 l25 37 3 -52 c3 -50 4 -52 33 -52 l29 0 0 68 1 67
20 -28 c20 -27 22 -27 40 -11 27 24 24 34 -23 76 l-43 37 43 1 c41 0 42 1 42
35 0 34 -1 35 -40 35 -45 0 -55 17 -13 22 21 2 31 12 46 51 11 26 18 49 16 51
-2 3 -16 7 -31 11 -24 6 -26 4 -32 -32 -13 -74 -26 -72 -26 5 l0 72 -30 0 -30
0 0 -90z"/>
<path d="M650 910 l0 -30 95 0 95 0 0 30 0 30 -95 0 -95 0 0 -30z"/>
<path d="M1487 903 c-12 -3 -16 -10 -13 -20 3 -8 9 -32 12 -54 4 -21 10 -39
14 -39 21 0 40 14 40 29 0 26 -20 91 -28 90 -4 -1 -15 -3 -25 -6z"/>
<path d="M1001 746 c-18 -19 -48 -42 -67 -52 -40 -22 -41 -25 -13 -49 19 -18
21 -18 53 -1 18 10 55 38 82 63 l49 45 -25 13 c-36 20 -42 19 -79 -19z"/>
<path d="M1057 648 c-21 -20 -66 -51 -99 -68 l-60 -32 25 -25 25 -25 53 28
c59 32 162 122 154 134 -3 4 -17 12 -32 17 -24 7 -33 3 -66 -29z"/>
<path d="M650 640 l0 -30 95 0 95 0 0 30 0 30 -95 0 -95 0 0 -30z"/>
<path d="M647 573 c-4 -3 -7 -55 -7 -115 l0 -108 35 0 c24 0 35 5 35 15 0 12
14 15 65 15 l65 0 0 100 0 100 -93 0 c-52 0 -97 -3 -100 -7z m133 -98 c0 -33
-2 -35 -35 -35 -33 0 -35 2 -35 35 0 33 2 35 35 35 33 0 35 -2 35 -35z"/>
<path d="M1103 535 c-41 -43 -122 -91 -195 -114 -21 -7 -38 -16 -38 -19 1 -4
11 -19 23 -34 l22 -27 57 23 c32 13 80 38 107 55 49 32 131 112 131 129 0 9
-45 33 -58 31 -4 0 -26 -20 -49 -44z"/>
</g>
</svg>
